<svg xmlns="http://www.w3.org/2000/svg" viewBox="0 0 512 512">
  <defs>
    <linearGradient id="g" x1="0" y1="0" x2="1" y2="1">
      <stop offset="0" stop-color="#073a42"/>
      <stop offset="1" stop-color="#14ada9"/>
    </linearGradient>
  </defs>
  <rect width="512" height="512" rx="112" fill="url(#g)"/>
  <path d="M374 151c-30-30-68-45-113-45-88 0-159 65-159 150s71 150 159 150c45 0 84-16 114-46l-43-47c-18 18-41 27-69 27-48 0-86-36-86-84s38-84 86-84c27 0 50 9 68 26l43-47z" fill="#fff"/>
  <circle cx="370" cy="330" r="36" fill="#b8fff4"/>
</svg>
